<svg xmlns="http://www.w3.org/2000/svg" viewBox="0 0 370 1440"><g xmlns="http://www.w3.org/2000/svg" transform="matrix(0 -1 1 0 -0 1440)"><defs><linearGradient id="sw-gradient-0" x1="0" x2="0" y1="1" y2="0"><stop stop-color="rgba(255, 255, 255, 1)" offset="0%" /><stop stop-color="rgba(255, 255, 255, 1)" offset="100%" /></linearGradient></defs><path style="transform:translate(0, 0px); opacity:1" fill="url(#sw-gradient-0)" d="M0,37L17.1,43.2C34.3,49,69,62,103,74C137.1,86,171,99,206,123.3C240,148,274,185,309,185C342.9,185,377,148,411,129.5C445.7,111,480,111,514,92.5C548.6,74,583,37,617,67.8C651.4,99,686,197,720,209.7C754.3,222,789,148,823,123.3C857.1,99,891,123,926,160.3C960,197,994,247,1029,265.2C1062.9,284,1097,271,1131,234.3C1165.7,197,1200,136,1234,92.5C1268.6,49,1303,25,1337,43.2C1371.4,62,1406,123,1440,160.3C1474.3,197,1509,210,1543,197.3C1577.1,185,1611,148,1646,160.3C1680,173,1714,234,1749,234.3C1782.9,234,1817,173,1851,123.3C1885.7,74,1920,37,1954,74C1988.6,111,2023,222,2057,222C2091.4,222,2126,111,2160,98.7C2194.3,86,2229,173,2263,203.5C2297.1,234,2331,210,2366,178.8C2400,148,2434,111,2451,92.5L2468.6,74L2468.6,370L2451.4,370C2434.3,370,2400,370,2366,370C2331.4,370,2297,370,2263,370C2228.6,370,2194,370,2160,370C2125.7,370,2091,370,2057,370C2022.9,370,1989,370,1954,370C1920,370,1886,370,1851,370C1817.1,370,1783,370,1749,370C1714.3,370,1680,370,1646,370C1611.4,370,1577,370,1543,370C1508.6,370,1474,370,1440,370C1405.7,370,1371,370,1337,370C1302.9,370,1269,370,1234,370C1200,370,1166,370,1131,370C1097.1,370,1063,370,1029,370C994.3,370,960,370,926,370C891.4,370,857,370,823,370C788.6,370,754,370,720,370C685.7,370,651,370,617,370C582.9,370,549,370,514,370C480,370,446,370,411,370C377.1,370,343,370,309,370C274.3,370,240,370,206,370C171.4,370,137,370,103,370C68.6,370,34,370,17,370L0,370Z" /></g></svg>